<?xml version="1.0" encoding="utf-8"?>
<!DOCTYPE svg PUBLIC "-//W3C//DTD SVG 20010904//EN" "http://www.w3.org/TR/2001/REC-SVG-20010904/DTD/svg10.dtd">
<svg version="1.0" xmlns="http://www.w3.org/2000/svg" width="930px" height="1332px" viewBox="0 0 930 1332" preserveAspectRatio="xMidYMid meet">
 <g fill="#21545e">
  <path d="M504.7 1193.5 c-14.9 -5.5 -39.9 -35.8 -55.8 -67.5 -13.3 -26.6 -20.2 -50.4 -25.8 -89 -6.8 -46.6 -13.9 -112.7 -16.1 -148 -1 -17.5 -1.7 -34.5 -4.5 -107.5 -1.8 -46.3 -3 -65.5 -4.9 -75 -1.9 -9 -2.6 -10.9 -7.1 -17.5 -2.9 -4.3 -3.5 -6.1 -3.1 -8.4 0.8 -3.7 3.6 -6.9 9.2 -10.1 8.5 -5 22.5 -22.6 30.3 -38.3 13 -25.9 19.1 -57.7 17.8 -92.7 -1 -26.1 -5.3 -54.2 -18.3 -119.5 -18.2 -91.4 -21.4 -146.7 -11.4 -197 3.5 -17.5 9.4 -32.4 17.1 -43.6 4.5 -6.6 15.6 -16.1 23.2 -19.9 17.9 -9 31.6 0.1 26.7 17.7 -2.6 9.3 -14 10.7 -17.6 2.2 l-1.5 -3.5 -3.2 2.3 c-6.4 4.6 -11 10.2 -14.8 18.1 -15.5 32.8 -18.9 89.7 -9.3 155.7 2.6 17.9 4.1 26.3 11.4 64 8.2 42.4 10.1 52.7 12.6 67 8.1 48 8.6 84.2 1.4 114.6 -7.6 32.5 -20.5 57.2 -41.4 79.2 l-6.9 7.2 2.6 7.8 c4.2 13 6 32.2 7.7 82.2 3.5 106.3 6 143 14 211.5 9.3 78.8 14.3 100.4 30.2 131.7 13.1 25.9 30.2 48 44.2 57.2 8.8 5.8 10.9 8.7 9.9 14 -1.2 5.9 -8.3 8.1 -16.6 5.1z"/>
 </g>
</svg>